<?xml version="1.0" encoding="UTF-8" standalone="no"?>
<svg
   xmlns:dc="http://purl.org/dc/elements/1.1/"
   xmlns:cc="http://creativecommons.org/ns#"
   xmlns:rdf="http://www.w3.org/1999/02/22-rdf-syntax-ns#"
   xmlns:svg="http://www.w3.org/2000/svg"
   xmlns="http://www.w3.org/2000/svg"
   xmlns:sodipodi="http://sodipodi.sourceforge.net/DTD/sodipodi-0.dtd"
   xmlns:inkscape="http://www.inkscape.org/namespaces/inkscape"
   role="img"
   viewBox="-7.67 -7.42 200 31.712649"
   version="1.1"
   id="svg979"
   sodipodi:docname="cncf.svg"
   width="200"
   height="31.712648"
   inkscape:version="0.92.5 (2060ec1f9f, 2020-04-08)">
  <metadata
     id="metadata983">
    <rdf:RDF>
      <cc:Work
         rdf:about="">
        <dc:format>image/svg+xml</dc:format>
        <dc:type
           rdf:resource="http://purl.org/dc/dcmitype/StillImage" />
        <dc:title>cncf-white-logo.svg</dc:title>
      </cc:Work>
    </rdf:RDF>
  </metadata>
  <sodipodi:namedview
     pagecolor="#ffffff"
     bordercolor="#666666"
     borderopacity="1"
     objecttolerance="10"
     gridtolerance="10"
     guidetolerance="10"
     inkscape:pageopacity="0"
     inkscape:pageshadow="2"
     inkscape:window-width="1706"
     inkscape:window-height="925"
     id="namedview981"
     showgrid="false"
     fit-margin-top="0"
     fit-margin-left="0"
     fit-margin-right="0"
     fit-margin-bottom="0"
     inkscape:zoom="0.90954647"
     inkscape:cx="191.88"
     inkscape:cy="30.495601"
     inkscape:window-x="639"
     inkscape:window-y="318"
     inkscape:window-maximized="0"
     inkscape:current-layer="svg979" />
  <title
     id="title964">cncf-white-logo.svg</title>
  <g
     id="g1535"
     transform="matrix(0.52094186,0,0,0.52094186,-7.67,-7.5502355)">
    <g
       id="g972"
       clip-path="url(#clip0_5012_17545)"
       style="fill:#ffffff">
      <path
         id="path966"
         d="m 91.1991,26.8831 c 1.4728,0.0292 2.9315,-0.2919 4.2556,-0.9369 1.3242,-0.645 2.4758,-1.5954 3.36,-2.7727 l 4.0933,4.1852 c -3.2365,3.6145 -6.9491,5.4218 -11.3281,5.4218 -1.9761,0.0753 -3.9471,-0.2481 -5.7953,-0.9508 -1.8482,-0.7027 -3.5357,-1.7704 -4.9618,-3.1393 -1.3886,-1.3366 -2.4795,-2.9509 -3.2012,-4.7375 -0.7218,-1.7865 -1.0582,-3.7051 -0.9873,-5.6304 -0.0543,-1.9459 0.2988,-3.8816 1.0364,-5.6833 0.7377,-1.8018 1.8437,-3.4297 3.2473,-4.77968 1.5097,-1.42327 3.2924,-2.52614 5.2405,-3.24204 1.948,-0.71591 4.021,-1.03 6.0939,-0.92333 2.0729,0.10667 4.1026,0.6319 5.9667,1.54398 1.8639,0.91208 3.5239,2.1921 4.8799,3.76281 l -3.9035,4.47056 c -0.8599,-1.1568 -1.98,-2.0953 -3.2698,-2.7397 -1.2899,-0.6444 -2.7133,-0.97664 -4.1554,-0.96992 -2.2479,-0.04322 -4.4273,0.77342 -6.0925,2.28282 -0.8641,0.7931 -1.5425,1.767 -1.9868,2.8521 -0.4443,1.0851 -0.6435,2.2548 -0.5835,3.4257 -0.0602,1.1684 0.12,2.3367 0.5293,3.4328 0.4093,1.0961 1.0392,2.0967 1.8506,2.9401 1.5663,1.4121 3.6021,2.1919 5.7117,2.1877 z m 16.6599,5.5167 V 4.14978 h 6.283 V 26.7879 h 12.09 v 5.6119 z m 45.978,-3.8997 c -2.861,2.6886 -6.64,4.1856 -10.567,4.1856 -3.927,0 -7.706,-1.497 -10.567,-4.1856 -1.395,-1.3366 -2.496,-2.9486 -3.233,-4.7335 -0.738,-1.785 -1.096,-3.7038 -1.051,-5.6343 -0.053,-1.9318 0.3,-3.8532 1.038,-5.6394 0.738,-1.7863 1.844,-3.39734 3.246,-4.72851 2.861,-2.68861 6.64,-4.18559 10.567,-4.18559 3.927,0 7.706,1.49698 10.567,4.18559 1.394,1.33659 2.496,2.94861 3.233,4.73361 0.738,1.7849 1.095,3.7037 1.05,5.6343 0.054,1.9317 -0.299,3.8531 -1.037,5.6394 -0.738,1.7862 -1.844,3.3973 -3.246,4.7284 z m -2.19,-10.3678 c 0.018,-2.3902 -0.866,-4.6994 -2.475,-6.4681 -0.758,-0.8381 -1.683,-1.5081 -2.716,-1.96662 -1.033,-0.45855 -2.151,-0.69548 -3.281,-0.69548 -1.131,0 -2.249,0.23693 -3.282,0.69548 -1.033,0.45852 -1.958,1.12852 -2.716,1.96662 -1.627,1.7575 -2.513,4.0741 -2.475,6.4681 -0.017,2.3901 0.866,4.6993 2.475,6.468 0.758,0.8381 1.683,1.5081 2.716,1.9666 1.033,0.4586 2.151,0.6955 3.282,0.6955 1.13,0 2.248,-0.2369 3.281,-0.6955 1.033,-0.4585 1.958,-1.1285 2.716,-1.9666 0.824,-0.858 1.468,-1.8725 1.893,-2.9834 0.426,-1.111 0.623,-2.2959 0.582,-3.4846 z m 19.326,7.0386 c 0.502,0.6505 1.154,1.1714 1.899,1.5189 0.745,0.3475 1.563,0.5116 2.385,0.4786 0.809,0.0429 1.617,-0.1173 2.348,-0.4663 0.732,-0.3489 1.365,-0.8753 1.84,-1.5312 1.094,-1.5536 1.63,-3.4304 1.523,-5.3266 V 4.24493 h 6.283 V 20.0345 c 0,4.0901 -1.142,7.229 -3.427,9.4167 -1.15,1.1021 -2.508,1.9641 -3.996,2.5357 -1.487,0.5716 -3.074,0.8414 -4.666,0.7935 -1.608,0.0479 -3.209,-0.2215 -4.711,-0.7928 -1.503,-0.5712 -2.878,-1.4332 -4.047,-2.5364 -2.285,-2.1877 -3.427,-5.3266 -3.427,-9.4167 V 4.24493 h 6.282 V 19.8443 c -0.002,1.9111 0.598,3.7745 1.714,5.3266 z M 215.43,7.85938 c 2.665,2.47312 4.093,5.89732 4.093,10.27272 0,4.3755 -1.333,7.8948 -3.903,10.463 -2.57,2.5682 -6.664,3.8047 -11.995,3.8047 H 193.82 V 4.14978 h 9.996 c 5.045,0 8.948,1.23654 11.614,3.7096 z m -4.57,16.83592 c 1.523,-1.4268 2.285,-3.6145 2.285,-6.3729 0,-2.7585 -0.762,-4.9462 -2.285,-6.3729 -1.523,-1.4268 -3.903,-2.28287 -7.139,-2.28287 h -3.523 V 26.883 h 3.999 c 2.416,0.1286 4.794,-0.6519 6.663,-2.1877 z M 255.41,4.14978 h 6.283 V 32.3998 H 255.41 L 241.892,14.7079 v 17.6919 h -6.283 V 4.14978 h 5.902 L 255.41,22.3173 Z m 33.415,28.25002 -2.665,-6.0875 h -11.9 l -2.665,6.0875 h -6.759 L 277.021,4.14978 h 6.092 l 12.185,28.25002 z m -8.472,-19.7845 -3.523,8.1801 h 7.045 z M 308.81,9.66666 V 32.495 h -6.282 V 9.66666 h -7.997 V 4.24493 h 22.371 v 5.42173 z m 12.569,-5.51688 h 6.283 V 32.3998 h -6.283 z m 23.703,17.97732 7.235,-17.97732 h 6.854 L 347.843,32.3998 h -5.331 L 331.184,4.14978 h 6.854 z M 382.876,4.14978 v 5.61196 h -14.089 v 5.80216 h 12.661 v 5.4218 h -12.661 v 5.8973 h 14.565 v 5.612 H 362.504 V 4.2449 h 20.372 z M 83.9603,56.4648 c 0.829,0.0157 1.6498,-0.1659 2.3946,-0.5297 0.7449,-0.3639 1.3924,-0.8996 1.8892,-1.5629 l 2.2847,2.3779 c -0.7757,0.9426 -1.7488,1.7037 -2.8508,2.2296 -1.102,0.5259 -2.3061,0.8039 -3.5273,0.8142 -1.1025,0.0472 -2.203,-0.131 -3.2343,-0.5235 -1.0312,-0.3925 -1.9714,-0.9912 -2.763,-1.7593 -0.7831,-0.7453 -1.3998,-1.6474 -1.81,-2.6472 -0.4101,-0.9999 -0.6043,-2.075 -0.5699,-3.155 -0.0348,-1.0942 0.1589,-2.1837 0.5686,-3.199 0.4098,-1.0153 1.0266,-1.9343 1.8113,-2.6984 0.7702,-0.7766 1.6908,-1.388 2.7057,-1.7969 1.0148,-0.4089 2.1025,-0.6066 3.1964,-0.581 1.2442,-0.0194 2.4775,0.2346 3.6125,0.7442 1.1351,0.5095 2.1442,1.2621 2.9559,2.2045 l -2.1894,2.473 c -0.4775,-0.6605 -1.1078,-1.1958 -1.8372,-1.5602 -0.7293,-0.3643 -1.5361,-0.547 -2.3514,-0.5324 -1.2704,-0.0083 -2.4961,0.4679 -3.4271,1.3317 -0.483,0.4451 -0.8615,0.9914 -1.1084,1.5999 -0.2468,0.6084 -0.3559,1.2639 -0.3195,1.9194 -0.0291,0.6464 0.0741,1.2919 0.3032,1.897 0.2292,0.6052 0.5795,1.1572 1.0296,1.6224 0.411,0.4426 0.9132,0.7908 1.472,1.0207 0.5588,0.2299 1.1608,0.336 1.7646,0.311 z m 22.2757,0.9512 c -1.582,1.5323 -3.7,2.3858 -5.902,2.378 -1.0956,0.0347 -2.1859,-0.1588 -3.2021,-0.5682 -1.0161,-0.4094 -1.9358,-1.0258 -2.7005,-1.8098 -1.5255,-1.5465 -2.3806,-3.6308 -2.3806,-5.8022 0,-2.1714 0.8551,-4.2557 2.3806,-5.8022 1.5812,-1.5323 3.6995,-2.3858 5.9026,-2.3779 1.095,-0.0348 2.185,0.1587 3.201,0.5681 1.016,0.4094 1.936,1.0258 2.701,1.8098 1.525,1.5465 2.38,3.6308 2.38,5.8022 0,2.1714 -0.855,4.2557 -2.38,5.8022 z m -1.143,-5.8022 c 0.027,-1.3294 -0.449,-2.6199 -1.332,-3.6145 -0.42,-0.4701 -0.933,-0.848 -1.507,-1.11 -0.573,-0.2619 -1.195,-0.4022 -1.825,-0.4119 -0.6357,-0.0216 -1.2674,0.1047 -1.8456,0.3688 -0.5782,0.2641 -1.0871,0.6589 -1.4865,1.1531 -0.456,0.4806 -0.8093,1.0489 -1.0384,1.6703 -0.2292,0.6214 -0.3293,1.2829 -0.2943,1.9442 -0.0092,1.3265 0.4645,2.611 1.3327,3.6145 0.4199,0.4701 0.9327,0.848 1.5062,1.11 0.5735,0.2619 1.1951,0.4022 1.8259,0.4119 0.635,0.0216 1.267,-0.1046 1.845,-0.3688 0.578,-0.2641 1.087,-0.6588 1.487,-1.1531 0.883,-0.9946 1.359,-2.2851 1.332,-3.6145 z m 20.755,-1.9976 -4.284,8.6557 h -2.094 l -4.284,-8.6557 v 9.9874 h -3.522 V 43.7189 h 4.76 l 4.093,8.6557 4.094,-8.6557 h 4.759 v 15.8847 h -3.522 z m 18.371,-4.3754 c 0.602,0.5498 1.069,1.2302 1.366,1.9887 0.297,0.7585 0.416,1.575 0.348,2.3867 0,1.9975 -0.571,3.4242 -1.714,4.2803 -1.142,0.9512 -2.855,1.3317 -5.235,1.3317 h -2.095 v 4.3754 h -3.522 V 43.7189 h 5.617 c 2.38,0.0951 4.093,0.5707 5.235,1.5219 z m -2.57,6.1826 c 0.46,-0.5981 0.696,-1.3386 0.667,-2.0926 0.041,-0.3647 -0.017,-0.7338 -0.168,-1.0685 -0.151,-0.3347 -0.389,-0.6227 -0.689,-0.8338 -0.785,-0.4324 -1.677,-0.6305 -2.571,-0.5707 h -1.999 v 5.3266 h 2.38 c 0.428,0.0376 0.858,-0.0103 1.267,-0.141 0.409,-0.1307 0.787,-0.3414 1.113,-0.62 z m 11.234,4.0901 c 0.285,0.3569 0.647,0.645 1.059,0.843 0.412,0.198 0.863,0.3008 1.321,0.3008 0.457,0 0.908,-0.1028 1.32,-0.3008 0.412,-0.198 0.774,-0.4861 1.059,-0.843 0.62,-0.8895 0.922,-1.9618 0.857,-3.0437 v -8.7509 h 3.522 v 8.846 c 0.055,0.9699 -0.085,1.9409 -0.412,2.8557 -0.327,0.9148 -0.834,1.755 -1.492,2.4709 -1.346,1.1802 -3.081,1.823 -4.873,1.8055 -1.791,-0.0176 -3.513,-0.6942 -4.836,-1.9006 -0.658,-0.7159 -1.165,-1.5561 -1.492,-2.4709 -0.327,-0.9149 -0.467,-1.8858 -0.412,-2.8557 v -8.846 h 3.522 v 8.7508 c -0.093,1.1144 0.211,2.2258 0.857,3.1389 z m 19.516,-8.6556 v 12.7458 h -3.522 V 46.8579 h -4.475 v -3.0438 h 12.566 v 3.0438 z m 7.14,-3.0438 h 3.522 v 15.8848 h -3.522 z m 18.468,0 h 3.523 v 15.8848 h -3.523 l -7.52,-9.8923 v 9.8923 h -3.522 V 43.8141 h 3.332 l 7.806,10.1777 V 43.8141 Z m 17.802,7.7996 h 3.522 v 5.612 c -0.841,0.8865 -1.863,1.5829 -2.996,2.0422 -1.133,0.4594 -2.351,0.6712 -3.573,0.6211 -2.191,0.0425 -4.31,-0.7774 -5.902,-2.2829 -0.783,-0.7452 -1.4,-1.6473 -1.81,-2.6472 -0.41,-0.9998 -0.604,-2.0749 -0.57,-3.155 -0.02,-1.0842 0.177,-2.1616 0.58,-3.1686 0.403,-1.007 1.004,-1.9231 1.767,-2.6943 0.763,-0.7713 1.673,-1.3821 2.676,-1.7964 1.003,-0.4143 2.079,-0.6237 3.164,-0.6159 2.191,-0.0425 4.311,0.7774 5.902,2.2828 l -1.808,2.6633 c -0.548,-0.5783 -1.237,-1.0044 -1.999,-1.2365 -0.611,-0.2266 -1.254,-0.355 -1.904,-0.3805 -1.271,-0.0083 -2.496,0.4679 -3.427,1.3317 -0.48,0.468 -0.855,1.032 -1.101,1.6548 -0.246,0.6229 -0.357,1.2907 -0.327,1.9596 -0.044,1.3323 0.434,2.6291 1.332,3.6145 0.406,0.4239 0.894,0.7606 1.434,0.9896 0.54,0.2289 1.121,0.3453 1.708,0.3421 1.057,0.0607 2.111,-0.1696 3.046,-0.6658 v -4.4706 z m 23.512,-7.7996 v 3.1389 h -7.33 v 3.4243 h 6.949 v 3.1389 h -6.949 v 6.1827 h -3.522 V 43.8141 Z m 16.372,13.6019 c -1.581,1.5323 -3.7,2.3858 -5.902,2.378 -1.096,0.0347 -2.186,-0.1588 -3.202,-0.5682 -1.016,-0.4094 -1.936,-1.0258 -2.701,-1.8098 -1.525,-1.5465 -2.38,-3.6308 -2.38,-5.8022 0,-2.1714 0.855,-4.2557 2.38,-5.8022 1.582,-1.5323 3.7,-2.3858 5.903,-2.3779 1.095,-0.0348 2.185,0.1587 3.201,0.5681 1.016,0.4094 1.936,1.0258 2.701,1.8098 1.525,1.5465 2.38,3.6308 2.38,5.8022 0,2.1714 -0.855,4.2557 -2.38,5.8022 z m -1.238,-5.8022 c 0.026,-1.3294 -0.449,-2.6199 -1.333,-3.6145 -0.419,-0.4701 -0.932,-0.848 -1.506,-1.11 -0.573,-0.2619 -1.195,-0.4022 -1.825,-0.4119 -0.636,-0.0216 -1.268,0.1047 -1.846,0.3688 -0.578,0.2641 -1.087,0.6589 -1.486,1.1531 -0.456,0.4806 -0.81,1.0489 -1.039,1.6703 -0.229,0.6214 -0.329,1.2829 -0.294,1.9442 -0.009,1.3265 0.465,2.611 1.333,3.6145 0.42,0.4701 0.932,0.848 1.506,1.11 0.573,0.2619 1.195,0.4022 1.826,0.4119 0.635,0.0216 1.267,-0.1046 1.845,-0.3688 0.578,-0.2641 1.087,-0.6588 1.486,-1.1531 0.456,-0.4806 0.81,-1.0489 1.039,-1.6703 0.229,-0.6214 0.329,-1.2829 0.294,-1.9442 z m 10.853,3.8997 c 0.286,0.3569 0.648,0.645 1.06,0.843 0.412,0.198 0.863,0.3008 1.32,0.3008 0.457,0 0.909,-0.1028 1.321,-0.3008 0.412,-0.198 0.774,-0.4861 1.059,-0.843 0.62,-0.8895 0.922,-1.9618 0.857,-3.0437 v -8.7509 h 3.522 v 8.846 c 0.055,0.9699 -0.086,1.9409 -0.413,2.8557 -0.327,0.9148 -0.834,1.755 -1.491,2.4709 -1.347,1.1802 -3.082,1.823 -4.873,1.8055 -1.791,-0.0176 -3.513,-0.6942 -4.837,-1.9006 -0.657,-0.7159 -1.164,-1.5561 -1.491,-2.4709 -0.327,-0.9149 -0.467,-1.8858 -0.413,-2.8557 v -8.846 h 3.523 v 8.7508 c -0.139,1.1182 0.168,2.2461 0.856,3.1389 z m 23.895,-11.6994 h 3.522 v 15.8848 h -3.522 l -7.521,-9.8923 v 9.8923 H 278.16 V 43.8141 h 3.332 l 7.806,10.1777 V 43.8141 Z m 19.516,2.0926 c 0.773,0.7478 1.378,1.6526 1.772,2.6535 0.394,1.0009 0.569,2.0746 0.512,3.1487 0.051,1.0652 -0.118,2.1295 -0.494,3.1273 -0.377,0.9978 -0.954,1.9081 -1.695,2.6749 -1.428,1.4268 -3.713,2.1878 -6.759,2.1878 h -5.426 V 43.8141 h 5.616 c 2.856,0 5.046,0.6659 6.474,2.0926 z m -2.571,9.4167 c 0.45,-0.4652 0.801,-1.0172 1.03,-1.6224 0.229,-0.6051 0.332,-1.2506 0.303,-1.8969 0.03,-0.6608 -0.072,-1.321 -0.301,-1.9417 -0.229,-0.6207 -0.58,-1.1894 -1.032,-1.6728 -0.551,-0.4594 -1.189,-0.8052 -1.875,-1.0174 -0.686,-0.2123 -1.408,-0.2867 -2.123,-0.2192 h -1.999 v 9.607 h 2.285 c 1.341,0.0171 2.649,-0.4185 3.712,-1.2366 z m 18.754,4.2802 -1.428,-3.4243 h -6.664 l -1.428,3.4243 h -3.808 l 6.854,-15.8847 h 3.427 l 6.854,15.8847 z m -4.76,-11.1288 -1.999,4.5656 h 3.998 z m 15.993,-1.6169 v 12.7458 h -3.523 V 46.8579 h -4.569 v -3.0438 h 12.566 v 3.0438 z m 7.045,-3.0438 h 3.522 v 15.8848 h -3.522 z m 20.751,13.6019 c -1.581,1.5323 -3.7,2.3858 -5.902,2.378 -1.095,0.0347 -2.186,-0.1588 -3.202,-0.5682 -1.016,-0.4094 -1.936,-1.0258 -2.7,-1.8098 -1.526,-1.5465 -2.381,-3.6308 -2.381,-5.8022 0,-2.1714 0.855,-4.2557 2.381,-5.8022 1.581,-1.5323 3.699,-2.3858 5.902,-2.3779 1.095,-0.0348 2.185,0.1587 3.201,0.5681 1.017,0.4094 1.936,1.0258 2.701,1.8098 1.525,1.5465 2.381,3.6308 2.381,5.8022 0,2.1714 -0.856,4.2557 -2.381,5.8022 z m -1.142,-5.8022 c 0.026,-1.3294 -0.45,-2.6199 -1.333,-3.6145 -0.42,-0.4701 -0.933,-0.848 -1.506,-1.11 -0.574,-0.2619 -1.195,-0.4022 -1.826,-0.4119 -0.635,-0.0216 -1.267,0.1047 -1.845,0.3688 -0.579,0.2641 -1.087,0.6589 -1.487,1.1531 -0.456,0.4806 -0.809,1.0489 -1.038,1.6703 -0.229,0.6214 -0.33,1.2829 -0.295,1.9442 -0.009,1.3265 0.465,2.611 1.333,3.6145 0.42,0.4701 0.933,0.848 1.506,1.11 0.574,0.2619 1.196,0.4022 1.826,0.4119 0.635,0.0216 1.267,-0.1046 1.845,-0.3688 0.579,-0.2641 1.087,-0.6588 1.487,-1.1531 0.883,-0.9946 1.359,-2.2851 1.333,-3.6145 z m 17.609,-7.7997 h 3.522 v 15.8848 h -3.522 l -7.52,-9.8923 v 9.8923 h -3.523 V 43.8141 h 3.332 l 7.806,10.1777 z M 8.66276,40.7988 H 0 V 61.1256 H 20.2766 V 52.3842 H 8.66276 Z M 52.2622,40.8939 V 52.3842 H 40.6484 v 8.7414 H 60.925 V 40.7988 H 52.167 Z M 0,20.5767 H 8.75795 L 8.66276,20.4816 V 8.99135 H 20.2766 V 0.25 H 0 Z M 40.6484,0.25 V 8.99135 H 52.2622 V 20.5767 H 60.925 V 0.25 Z"
         inkscape:connector-curvature="0" />
      <g
         id="g970"
         style="opacity:0.8">
        <path
           id="path968"
           d="M 39.5068,20.5767 27.893,8.99135 H 40.6491 V 0.25 H 20.2773 V 8.99135 L 31.8911,20.5767 Z M 29.0353,40.7988 h -7.6156 l 9.6147,9.5974 1.9039,1.988 h -12.661 v 8.7414 H 40.6491 V 52.2891 L 34.8422,46.582 Z M 52.2622,20.5767 v 12.6317 l -1.9991,-1.9975 -9.6147,-9.5974 v 7.6951 l 5.7117,5.707 5.8069,5.7927 h 8.758 V 20.5767 Z M 20.2766,32.067 8.75795,20.5767 H 0 V 40.7988 H 8.66276 V 28.1671 L 20.2766,39.762 Z"
           inkscape:connector-curvature="0"
           style="opacity:0.8" />
      </g>
    </g>
  </g>
  <defs
     id="defs977">
    <clipPath
       id="clip0_5012_17545">
      <path
         d="M 0,0 H 383.922 V 60.876 H 0 Z"
         transform="translate(0,0.25)"
         id="path974"
         inkscape:connector-curvature="0"
         style="fill:#ffffff" />
    </clipPath>
  </defs>
</svg>
